HIERARCHY
ROOT Hips
{
	OFFSET 0.000000 0.000000 0.000000
	CHANNELS 6 Xposition Yposition Zposition Zrotation Yrotation Xrotation 
	JOINT LHipJoint
	{
		OFFSET 0.000000 0.000000 0.000000
		CHANNELS 3 Zrotation Yrotation Xrotation
		JOINT LeftUpLeg
		{
			OFFSET 1.363060 -1.794630 0.839290
			CHANNELS 3 Zrotation Yrotation Xrotation
			JOINT LeftLeg
			{
				OFFSET 2.448110 -6.726130 0.000000
				CHANNELS 3 Zrotation Yrotation Xrotation
				JOINT LeftFoot
				{
					OFFSET 2.562200 -7.039590 0.000000
					CHANNELS 3 Zrotation Yrotation Xrotation
					JOINT LeftToeBase
					{
						OFFSET 0.157640 -0.433110 2.322550
						CHANNELS 3 Zrotation Yrotation Xrotation
						End Site
						{
							OFFSET 0.000000 0.000000 0.000000
						}
					}
				}
			}
		}
	}
	JOINT RHipJoint
	{
		OFFSET 0.000000 0.000000 0.000000
		CHANNELS 3 Zrotation Yrotation Xrotation
		JOINT RightUpLeg
		{
			OFFSET -1.305520 -1.794630 0.839290
			CHANNELS 3 Zrotation Yrotation Xrotation
			JOINT RightLeg
			{
				OFFSET -2.542530 -6.985550 0.000000
				CHANNELS 3 Zrotation Yrotation Xrotation
				JOINT RightFoot
				{
					OFFSET -2.568260 -7.056230 0.000000
					CHANNELS 3 Zrotation Yrotation Xrotation
					JOINT RightToeBase
					{
						OFFSET -0.164730 -0.452590 2.363150
						CHANNELS 3 Zrotation Yrotation Xrotation
						End Site
						{
							OFFSET 0.000000 0.000000 0.000000
						}
					}
				}
			}
		}
	}
	JOINT LowerBack
	{
		OFFSET 0.000000 0.000000 0.000000
		CHANNELS 3 Zrotation Yrotation Xrotation
		JOINT Spine
		{
			OFFSET 0.028270 2.035590 -0.193380
			CHANNELS 3 Zrotation Yrotation Xrotation
			JOINT Spine1
			{
				OFFSET 0.056720 2.048850 -0.042750
				CHANNELS 3 Zrotation Yrotation Xrotation
				JOINT Neck
				{
					OFFSET 0.000000 0.000000 0.000000
					CHANNELS 3 Zrotation Yrotation Xrotation
					JOINT Neck1
					{
						OFFSET -0.054170 1.746240 0.172020
						CHANNELS 3 Zrotation Yrotation Xrotation
						JOINT Head
						{
							OFFSET 0.104070 1.761360 -0.123970
							CHANNELS 3 Zrotation Yrotation Xrotation
							End Site
							{
								OFFSET 0.000000 0.000000 0.000000
							}
						}
					}
				}
				JOINT LeftShoulder
				{
					OFFSET 0.000000 0.000000 0.000000
					CHANNELS 3 Zrotation Yrotation Xrotation
					JOINT LeftArm
					{
						OFFSET 3.362410 1.200890 -0.311210
						CHANNELS 3 Zrotation Yrotation Xrotation
						JOINT LeftForeArm
						{
							OFFSET 4.983000 -0.000000 -0.000000
							CHANNELS 3 Zrotation Yrotation Xrotation
							JOINT LeftHand
							{
								OFFSET 3.483560 -0.000000 -0.000000
								CHANNELS 3 Zrotation Yrotation Xrotation
								JOINT LeftFingerBase
								{
									OFFSET 0.000000 0.000000 0.000000
									CHANNELS 3 Zrotation Yrotation Xrotation
									JOINT LeftHandIndex1
									{
										OFFSET 0.715260 -0.000000 -0.000000
										CHANNELS 3 Zrotation Yrotation Xrotation
										End Site
										{
											OFFSET 0.000000 0.000000 0.000000
										}
									}
								}
								JOINT LThumb
								{
									OFFSET 0.000000 0.000000 0.000000
									CHANNELS 3 Zrotation Yrotation Xrotation
									End Site
									{
										OFFSET 0.000000 0.000000 0.000000
									}
								}
							}
						}
					}
				}
				JOINT RightShoulder
				{
					OFFSET 0.000000 0.000000 0.000000
					CHANNELS 3 Zrotation Yrotation Xrotation
					JOINT RightArm
					{
						OFFSET -3.136600 1.374050 -0.404650
						CHANNELS 3 Zrotation Yrotation Xrotation
						JOINT RightForeArm
						{
							OFFSET -5.241900 -0.000000 -0.000000
							CHANNELS 3 Zrotation Yrotation Xrotation
							JOINT RightHand
							{
								OFFSET -3.444170 -0.000000 -0.000000
								CHANNELS 3 Zrotation Yrotation Xrotation
								JOINT RightFingerBase
								{
									OFFSET 0.000000 0.000000 0.000000
									CHANNELS 3 Zrotation Yrotation Xrotation
									JOINT RightHandIndex1
									{
										OFFSET -0.622530 -0.000000 -0.000000
										CHANNELS 3 Zrotation Yrotation Xrotation
										End Site
										{
											OFFSET 0.000000 0.000000 0.000000
										}
									}
								}
								JOINT RThumb
								{
									OFFSET 0.000000 0.000000 0.000000
									CHANNELS 3 Zrotation Yrotation Xrotation
									End Site
									{
										OFFSET 0.000000 0.000000 0.000000
									}
								}
							}
						}
					}
				}
			}
		}
	}
}
MOTION
Frames: 5
Frame Time: 0.008333
3.596742 14.716291 9.864069 168.135116 -57.416120 -159.087439 -7.789035 0.396613 -5.785062 -7.928439 -12.159544 -50.699355 8.130332 17.628724 81.933369 2.587763 4.145929 0.702328 6.515626 1.937489 -18.034264 1.151829 0.917271 -7.569587 16.508184 -8.471260 -27.903457 -15.776719 -23.164100 57.333794 -39.545510 -18.676301 -10.932991 -4.715653 -14.339682 -41.714955 4.335692 -4.216521 19.349869 -0.979146 0.015683 -7.026635 -8.128482 -1.003145 4.377890 -0.850271 2.217293 -9.184955 0.627739 1.263412 5.188731 1.584738 -1.518962 10.296157 12.306307 10.534960 0.676132 -78.840051 -2.228800 5.043513 176.254799 -71.959577 175.475148 -10.576210 32.840371 -7.835151 0.000001 -0.000001 0.000002 0.000000 -0.000000 0.000000 -0.000000 0.000000 0.000000 -5.863349 14.046502 12.138494 74.499413 67.299572 17.835498 -47.963881 85.052216 -37.962809 10.899523 -2.640504 -0.462844 0.000000 0.000000 0.000000 0.000000 0.000000 -0.000000 0.000000 0.000000 0.000000 
3.381742 14.741261 9.671096 167.614041 -57.538786 -158.530226 -7.996819 0.692275 -5.566695 -8.840278 -12.731926 -51.980831 5.999441 17.392071 79.335462 3.304659 4.641924 0.197092 7.505915 1.355901 -19.530090 1.001817 0.776179 -7.652590 16.491033 -9.094621 -26.302554 -15.314356 -23.236233 56.237752 -39.137406 -18.576605 -11.257683 -4.920184 -14.148567 -41.870821 4.341224 -4.293036 19.154478 -1.168744 0.168385 -7.058518 -8.305284 -0.782604 4.431284 -0.979355 2.106163 -9.290744 0.649757 1.155872 5.066497 1.974653 -2.039835 10.938617 11.932818 10.669595 0.670313 -78.993137 -1.688534 4.679535 176.455543 -71.744243 174.818898 -12.236081 33.389414 -8.477875 0.000001 -0.000001 0.000002 -0.000000 0.000000 -0.000000 0.000000 0.000000 0.000000 -5.951761 14.289822 11.834895 74.776399 67.449859 17.659497 -54.833743 86.245114 -44.187857 11.474632 -2.888487 -0.528488 0.000000 0.000000 0.000000 0.000000 0.000000 0.000000 0.000000 0.000000 0.000000 
3.159580 14.762312 9.456622 167.002951 -57.995457 -157.937157 -7.814433 1.351982 -5.286042 -10.311868 -13.765843 -52.831822 4.166519 17.079869 76.247331 3.682050 4.714582 -0.786456 8.302369 0.503657 -20.208415 0.722125 0.341597 -7.639399 16.764829 -9.563978 -24.629082 -15.064444 -23.415247 55.174672 -38.684268 -17.825724 -11.852408 -4.740551 -14.222161 -41.460558 4.180740 -4.364743 18.863465 -1.234743 0.261065 -6.944310 -8.447016 -0.616502 4.393608 -1.029166 2.021382 -9.375331 0.680080 1.068960 4.966543 2.418106 -2.418746 10.751292 11.848550 10.610752 0.529189 -79.285236 -0.980193 4.678995 176.084982 -71.410938 174.862335 -11.883692 33.850863 -8.496766 0.000001 -0.000001 0.000002 0.000000 0.000000 0.000000 0.000000 0.000000 0.000000 -6.064585 14.227202 11.576241 75.360349 67.227369 17.389065 -62.524948 87.749845 -50.499416 11.281758 -2.695936 -0.479584 -0.000000 0.000000 0.000000 -0.000000 0.000000 0.000000 -0.000000 0.000000 0.000000 
2.932793 14.787988 9.253138 166.571628 -58.234582 -157.468413 -7.748708 1.949525 -4.940266 -11.479932 -14.667357 -53.591158 1.902413 16.642787 72.815644 3.975080 5.176594 -1.305979 9.275760 0.284276 -22.026985 0.483381 0.027664 -7.728510 17.050928 -10.250586 -22.938346 -14.984669 -23.469151 53.987289 -37.042551 -16.646735 -12.797917 -4.595446 -14.426277 -41.546824 4.172087 -4.468441 18.614252 -1.380700 0.353289 -6.871368 -8.667294 -0.461111 4.580487 -1.109783 1.999504 -9.714795 0.702520 1.035871 4.818516 2.837285 -2.731470 10.912150 11.622364 10.887126 0.331120 -79.531931 -0.452307 4.658702 175.814425 -71.072205 174.998599 -12.374663 34.064574 -8.706908 0.000001 -0.000001 0.000002 0.000000 0.000000 -0.000000 -0.000000 -0.000000 -0.000000 -6.166608 13.985470 11.724241 76.055049 67.858423 16.919099 -72.902248 89.706109 -60.279706 12.427050 -3.549681 -0.706589 0.000000 0.000000 0.000000 -0.000000 0.000000 -0.000000 0.000000 0.000000 0.000000 
2.712297 14.823423 9.049565 166.056885 -58.347554 -156.860342 -7.790569 2.318677 -4.696367 -12.556582 -15.210496 -54.100088 0.354089 16.244614 68.894986 3.497530 4.915332 -1.003625 9.194271 0.813148 -22.524493 0.459803 -0.035004 -7.899089 16.992175 -11.212626 -21.309885 -15.026648 -23.535822 52.684879 -35.081985 -15.096355 -13.699202 -4.080923 -15.024540 -41.494310 4.044899 -4.550502 18.472954 -1.537361 0.516914 -6.892075 -8.627206 -0.299118 4.407035 -1.444358 1.935245 -9.762165 0.703269 1.009929 4.659367 3.108035 -3.013291 11.099341 11.080805 11.026593 0.287659 -79.658261 0.190286 4.599144 175.549506 -70.723763 174.692945 -12.791025 34.761381 -9.032661 0.000001 -0.000001 0.000002 0.000000 -0.000000 0.000000 -0.000000 -0.000000 0.000000 -6.219377 13.783980 11.503498 77.039744 68.045540 17.930359 98.010160 89.542472 111.599597 12.345179 -4.118179 -0.849060 0.000000 0.000000 0.000000 0.000000 0.000000 -0.000000 0.000000 0.000000 0.000000 
